<?xml version="1.0" encoding="UTF-8"?>
<svg width="752pt" height="752pt" version="1.1" viewBox="0 0 752 752" xmlns="http://www.w3.org/2000/svg">
 <g fill="#444">
  <path d="m599.39 344.64c0 36.637-29.844 66.48-66.48 66.48h-52.273c11.527-18.766 17.871-40.566 17.871-63.621 0.003906-67.641-54.949-122.59-122.5-122.59-67.641 0-122.59 54.953-122.59 122.59 0 23.055 6.3438 44.945 17.871 63.621h-52.184c-36.637 0-66.48-29.844-66.48-66.48 0-36.367 29.129-66.035 65.141-66.48 10.902-31.809 41.016-49.145 66.211-49.68 8.4883-43.785 46.645-75.863 92.035-75.863 45.395 0 83.547 32.078 92.035 75.863 25.199 0.625 55.312 17.871 66.121 49.68 36.102 0.53906 65.23 30.203 65.23 66.48z"/>
  <path d="m412.46 464.46v14.297c0 4.4688-3.5742 8.043-8.043 8.043h-6.4336l5.9883 82.473c1.1602 16.262-11.617 30.113-27.969 30.113s-29.219-13.852-27.969-30.113l5.9883-82.473h-6.4336c-4.4688 0-8.1328-3.5742-8.1328-8.043v-14.297c11.617 3.5742 23.859 5.5391 36.547 5.5391 12.691 0 24.93-1.9688 36.457-5.5391z"/>
  <path d="m376 242.77c-57.723 0-104.72 47-104.72 104.72 0 58.98 48.047 104.63 104.72 104.63 57.207 0 104.63-46.086 104.63-104.63 0.003907-57.723-46.91-104.72-104.63-104.72zm0.003906 177.4c-39.48 0-72.77-31.836-72.77-72.672 0-40.152 32.613-72.766 72.77-72.766 40.059 0 72.672 32.613 72.672 72.766 0 41-33.266 72.672-72.672 72.672z"/>
  <path d="m339.44 370.02v-13.633h-23.273v-4.4688l22.348-31.973h7.3125v31.125h7.0156v5.3125h-7.0156v13.633zm0-18.949v-16.719c0-2.6172 0.070312-5.2344 0.22656-7.8594h-0.22656c-1.543 2.9258-2.7734 5.0859-4.1641 7.3945l-12.25 17.023v0.15625z"/>
  <path d="m391.27 344.44c0 17.023-6.3164 26.422-17.41 26.422-9.7812 0-16.414-9.168-16.562-25.73 0-16.793 7.2422-26.039 17.41-26.039 10.551 0.003906 16.562 9.4023 16.562 25.348zm-27.191 0.77344c0 13.02 4.0039 20.414 10.164 20.414 6.9375 0 10.246-8.0898 10.246-20.879 0-12.324-3.1602-20.414-10.164-20.414-5.9336 0.003906-10.246 7.2461-10.246 20.879z"/>
  <path d="m418.46 370.02v-13.633h-23.273v-4.4688l22.348-31.973h7.3125v31.125h7.0156v5.3125h-7.0156v13.633zm0-18.949v-16.719c0-2.6172 0.070312-5.2344 0.22656-7.8594h-0.22656c-1.543 2.9258-2.7734 5.0859-4.1641 7.3945l-12.25 17.023v0.15625z"/>
 </g>
</svg>
