<?xml version="1.0" encoding="UTF-8"?>
<svg width="752pt" height="752pt" version="1.1" viewBox="0 0 752 752" xmlns="http://www.w3.org/2000/svg">
 <defs>
  <clipPath id="b">
   <path d="m139.21 376h473.58v208h-473.58z"/>
  </clipPath>
  <clipPath id="a">
   <path d="m139.21 198h473.58v208h-473.58z"/>
  </clipPath>
 </defs>
 <g>
  <g clip-path="url(#b)">
   <path d="m583.19 583.19h-414.38c-16.309 0-29.598-13.262-29.598-29.598v-162.79c0-8.168 6.6289-14.801 14.801-14.801h88.797c5.5938 0 10.715 3.168 13.23 8.168l25.512 51.031h188.9l25.484-51.027c2.5469-5.0039 7.668-8.1719 13.262-8.1719h88.797c8.168 0 14.801 6.6328 14.801 14.801v162.79c0 16.34-13.262 29.598-29.602 29.598zm0-29.598v14.801zm-414.38-147.99v147.99h414.38v-147.99h-64.852l-25.484 51.027c-2.543 5-7.6641 8.168-13.258 8.168h-207.19c-5.5938 0-10.715-3.168-13.23-8.168l-25.516-51.027z" fill="#676767"/>
  </g>
  <g clip-path="url(#a)">
   <path d="m597.99 405.6c-5.0898 0-10.035-2.6328-12.785-7.3398l-99.305-170.25h-219.8l-99.305 170.25c-4.1133 7.0469-13.172 9.5312-20.246 5.3281-7.043-4.1133-9.4414-13.199-5.3281-20.242l103.6-177.59c2.6641-4.5586 7.5156-7.3398 12.785-7.3398h236.79c5.2695 0 10.121 2.7812 12.785 7.3398l103.6 177.59c4.1445 7.043 1.7461 16.133-5.3281 20.246-2.3359 1.3906-4.9102 2.0117-7.457 2.0117z" fill="#676767"/>
  </g>
 </g>
</svg>
