<?xml version="1.0" encoding="UTF-8"?>
<svg width="752pt" height="752pt" version="1.1" viewBox="0 0 752 752" xmlns="http://www.w3.org/2000/svg">
 <g fill="#fff">
  <path d="m368.7 576.72c-46.156 0-92.402 0.09375-138.56-0.09375-27.102-0.09375-45.602-12.395-53.277-34.594-7.5859-21.922-1.7578-46.711 19.887-60.398 34.777-21.922 71.5-40.789 107.85-60.215 3.6992-1.9414 10.637 0.09375 15.262 2.2188 33.484 14.707 66.598 14.801 100.27 0.37109 5.8281-2.4961 14.707-2.8672 20.07-0.18359 31.82 16.188 63.359 32.836 94.254 50.688 27.84 16.094 38.293 43.102 28.582 68.633-8.3242 21.828-25.715 33.297-52.168 33.484-47.359 0.27344-94.812 0.18359-142.17 0.089844z"/>
  <path d="m265.56 298.4c-0.09375-76.402 53.832-130.7 117.56-122.46 38.199 4.9023 63.359 28.305 79.453 61.973 22.66 47.449 13.227 106.93-22.383 142.63-27.008 27.008-59.477 37.645-96.383 26.547-41.715-12.488-64.191-43.66-74.645-84.449-2.4062-9.5273-2.9609-19.52-3.6055-24.234z"/>
 </g>
</svg>
